<svg width="39" height="40" viewBox="0 0 39 40" fill="none" xmlns="http://www.w3.org/2000/svg">
<path d="M34.875 28.75V13H10.9583V28.75H34.875ZM34.875 4.25C35.7812 4.25 36.6502 4.61875 37.291 5.27513C37.9317 5.9315 38.2917 6.82174 38.2917 7.75V28.75C38.2917 29.6783 37.9317 30.5685 37.291 31.2249C36.6502 31.8813 35.7812 32.25 34.875 32.25H10.9583C9.06209 32.25 7.54168 30.675 7.54168 28.75V7.75C7.54168 6.82174 7.90165 5.9315 8.54239 5.27513C9.18314 4.61875 10.0522 4.25 10.9583 4.25H12.6667V0.75H16.0833V4.25H29.75V0.75H33.1667V4.25H34.875ZM28.9471 18.355L21.3621 26.125L16.7838 21.435L18.5946 19.58L21.3621 22.415L27.1363 16.5L28.9471 18.355ZM4.12501 35.75H28.0417V39.25H4.12501C2.22876 39.25 0.708344 37.675 0.708344 35.75V14.75H4.12501V35.75Z" fill="#1AA7FE"/>
</svg>
