<svg width="35" height="32" viewBox="0 0 35 32" fill="none" xmlns="http://www.w3.org/2000/svg">
<path d="M28.98 20.83C29.5779 19.3425 29.9025 17.75 29.9025 16C29.9025 14.74 29.7146 13.5325 29.39 12.4125C28.2796 12.675 27.1179 12.815 25.905 12.815C20.6775 12.815 16.0479 10.1725 13.2292 6.09499C11.7087 9.87499 8.80457 12.955 5.14874 14.635C5.08041 15.0725 5.08041 15.545 5.08041 16C5.08041 19.3742 6.38889 22.6102 8.71802 24.9962C11.0471 27.3821 14.2061 28.7225 17.5 28.7225C19.2937 28.7225 21.0192 28.32 22.5737 27.6025C23.5475 29.51 23.9917 30.455 23.9575 30.455C21.1558 31.4175 18.9862 31.89 17.5 31.89C13.3658 31.89 9.41957 30.2275 6.51541 27.235C4.73874 25.415 3.42332 23.1925 2.68874 20.7775H0.416656V12.815H2.27874C3.71374 5.56999 9.98332 0.109985 17.5 0.109985C21.6 0.109985 25.5462 1.77249 28.4675 4.76499C30.6371 6.96999 32.0892 9.78749 32.6871 12.815H34.5833V20.6725V20.7075V20.7775H34.4808L28.3992 26.5L19.345 25.45V22.5275H27.5962L28.98 20.83ZM12.8362 15.5975C13.3487 15.5975 13.8442 15.8075 14.2029 16.1925C14.5617 16.56 14.7667 17.0675 14.7667 17.5925C14.7667 18.1175 14.5617 18.625 14.2029 18.9925C13.8442 19.36 13.3487 19.57 12.8362 19.57C11.76 19.57 10.8887 18.695 10.8887 17.5925C10.8887 16.49 11.76 15.5975 12.8362 15.5975ZM22.1467 15.5975C23.2229 15.5975 24.0771 16.49 24.0771 17.5925C24.0771 18.695 23.2229 19.57 22.1467 19.57C21.0704 19.57 20.1992 18.695 20.1992 17.5925C20.1992 17.0634 20.4043 16.5559 20.7696 16.1818C21.1348 15.8077 21.6301 15.5975 22.1467 15.5975Z" fill="#1AA7FE"/>
</svg>
