<svg width="41" height="42" viewBox="0 0 41 42" fill="none" xmlns="http://www.w3.org/2000/svg">
<path d="M6.15 8.4C3.895 8.4 2.05 10.29 2.05 12.6C2.05 14.91 3.895 16.8 6.15 16.8C8.405 16.8 10.25 14.931 10.25 12.6C10.25 10.269 8.4255 8.4 6.15 8.4ZM20.5 4.2C18.245 4.2 16.4 6.069 16.4 8.4C16.4 10.731 18.245 12.6 20.5 12.6C22.755 12.6 24.6 10.731 24.6 8.4C24.6 6.069 22.7755 4.2 20.5 4.2ZM34.85 0C32.595 0 30.75 1.89 30.75 4.2C30.75 6.51 32.595 8.4 34.85 8.4C37.105 8.4 38.95 6.531 38.95 4.2C38.95 1.869 37.1255 0 34.85 0ZM3.075 18.9C1.3735 18.9 0 20.307 0 22.05V31.5H2.05V42H10.25V31.5H12.3V22.05C12.3 20.307 10.9265 18.9 9.225 18.9H3.075ZM17.425 14.7C15.7235 14.7 14.35 16.107 14.35 17.85V27.3H16.4V37.8H24.6V27.3H26.65V17.85C26.65 16.107 25.2765 14.7 23.575 14.7H17.425ZM31.775 10.5C30.0735 10.5 28.7 11.907 28.7 13.65V23.1H30.75V33.6H38.95V23.1H41V13.65C41 11.907 39.6265 10.5 37.925 10.5H31.775Z" fill="#1AA7FE"/>
</svg>
