<svg width="31" height="32" viewBox="0 0 31 32" fill="none" xmlns="http://www.w3.org/2000/svg">
<path d="M27.4583 0.25H3.54167C1.64542 0.25 0.125 1.825 0.125 3.75V28.25C0.125 30.175 1.64542 31.75 3.54167 31.75H27.4583C29.3375 31.75 30.875 30.175 30.875 28.25V3.75C30.875 1.825 29.3546 0.25 27.4583 0.25ZM27.4583 28.25H3.54167V7.25H27.4583V28.25ZM18.0625 17.75C18.0625 19.2025 16.9179 20.375 15.5 20.375C14.0821 20.375 12.9375 19.2025 12.9375 17.75C12.9375 16.2975 14.0821 15.125 15.5 15.125C16.9179 15.125 18.0625 16.2975 18.0625 17.75ZM15.5 10.75C10.8363 10.75 6.85583 13.655 5.25 17.75C6.85583 21.845 10.8363 24.75 15.5 24.75C20.1637 24.75 24.1442 21.845 25.75 17.75C24.1442 13.655 20.1637 10.75 15.5 10.75ZM15.5 22.125C13.1425 22.125 11.2292 20.165 11.2292 17.75C11.2292 15.335 13.1425 13.375 15.5 13.375C17.8575 13.375 19.7708 15.335 19.7708 17.75C19.7708 20.165 17.8575 22.125 15.5 22.125Z" fill="#1AA7FE"/>
</svg>
